<svg xmlns="http://www.w3.org/2000/svg" xmlns:xlink="http://www.w3.org/1999/xlink" width="500" zoomAndPan="magnify" viewBox="0 0 375 374.999991" height="500" preserveAspectRatio="xMidYMid meet" version="1.0"><defs><g/><clipPath id="id1"><path d="M 149.109375 106.175781 L 225.878906 106.175781 L 225.878906 182.640625 L 149.109375 182.640625 Z M 149.109375 106.175781 " clip-rule="nonzero"/></clipPath><clipPath id="id2"><path d="M 148.78125 106.3125 L 225.28125 106.3125 L 225.28125 182.8125 L 148.78125 182.8125 Z M 148.78125 106.3125 " clip-rule="nonzero"/></clipPath></defs><rect x="-37.5" width="450" fill="#ffffff" y="-37.499999" height="449.999989" fill-opacity="1"/><rect x="-37.5" width="450" fill="#050a30" y="-37.499999" height="449.999989" fill-opacity="1"/><rect x="-37.5" width="450" fill="#ffffff" y="-37.499999" height="449.999989" fill-opacity="1"/><rect x="-37.5" width="450" fill="#050a30" y="-37.499999" height="449.999989" fill-opacity="1"/><g fill="#f4f6fc" fill-opacity="1"><g transform="translate(80.960587, 241.855064)"><g><path d="M 2.15625 0 L 2.15625 -20.65625 L 6.171875 -20.65625 L 6.171875 -3.515625 L 16.703125 -3.515625 L 16.703125 0 Z M 2.15625 0 "/></g></g></g><g fill="#f4f6fc" fill-opacity="1"><g transform="translate(104.354348, 241.855064)"><g><path d="M 2.15625 0 L 2.15625 -20.65625 L 6.171875 -20.65625 L 6.171875 0 Z M 2.15625 0 "/></g></g></g><g fill="#f4f6fc" fill-opacity="1"><g transform="translate(119.077746, 241.855064)"><g><path d="M 16.5 -2.328125 C 14.84375 -0.679688 12.921875 0.140625 10.734375 0.140625 C 9.378906 0.140625 8.101562 -0.128906 6.90625 -0.671875 C 5.71875 -1.210938 4.679688 -1.957031 3.796875 -2.90625 C 2.910156 -3.851562 2.210938 -4.972656 1.703125 -6.265625 C 1.191406 -7.554688 0.9375 -8.945312 0.9375 -10.4375 C 0.9375 -11.851562 1.191406 -13.1875 1.703125 -14.4375 C 2.210938 -15.695312 2.914062 -16.796875 3.8125 -17.734375 C 4.71875 -18.671875 5.78125 -19.414062 7 -19.96875 C 8.226562 -20.519531 9.5625 -20.796875 11 -20.796875 C 12.9375 -20.796875 14.597656 -20.390625 15.984375 -19.578125 C 17.367188 -18.765625 18.410156 -17.671875 19.109375 -16.296875 L 16.125 -14.078125 C 15.59375 -15.109375 14.859375 -15.894531 13.921875 -16.4375 C 12.984375 -16.976562 11.960938 -17.25 10.859375 -17.25 C 9.984375 -17.25 9.179688 -17.0625 8.453125 -16.6875 C 7.722656 -16.320312 7.097656 -15.820312 6.578125 -15.1875 C 6.066406 -14.550781 5.671875 -13.8125 5.390625 -12.96875 C 5.109375 -12.132812 4.96875 -11.253906 4.96875 -10.328125 C 4.96875 -9.359375 5.125 -8.453125 5.4375 -7.609375 C 5.75 -6.765625 6.175781 -6.03125 6.71875 -5.40625 C 7.257812 -4.789062 7.90625 -4.300781 8.65625 -3.9375 C 9.40625 -3.582031 10.210938 -3.40625 11.078125 -3.40625 C 13.078125 -3.40625 14.882812 -4.34375 16.5 -6.21875 L 16.5 -7.6875 L 12.328125 -7.6875 L 12.328125 -10.625 L 19.8125 -10.625 L 19.8125 0 L 16.5 0 Z M 16.5 -2.328125 "/></g></g></g><g fill="#f4f6fc" fill-opacity="1"><g transform="translate(146.573911, 241.855064)"><g><path d="M 19.515625 -20.65625 L 19.515625 0 L 15.53125 0 L 15.53125 -8.8125 L 6.171875 -8.8125 L 6.171875 0 L 2.15625 0 L 2.15625 -20.65625 L 6.171875 -20.65625 L 6.171875 -12.3125 L 15.53125 -12.3125 L 15.53125 -20.65625 Z M 19.515625 -20.65625 "/></g></g></g><g fill="#f4f6fc" fill-opacity="1"><g transform="translate(174.651983, 241.855064)"><g><path d="M 17.609375 -17.140625 L 11 -17.140625 L 11 0 L 7.015625 0 L 7.015625 -17.140625 L 0.40625 -17.140625 L 0.40625 -20.65625 L 17.609375 -20.65625 Z M 17.609375 -17.140625 "/></g></g></g><g fill="#f4f6fc" fill-opacity="1"><g transform="translate(199.064074, 241.855064)"><g><path d="M 2.15625 0 L 2.15625 -20.65625 L 6.171875 -20.65625 L 6.171875 -3.515625 L 16.703125 -3.515625 L 16.703125 0 Z M 2.15625 0 "/></g></g></g><g fill="#f4f6fc" fill-opacity="1"><g transform="translate(222.457829, 241.855064)"><g><path d="M 10.875 -3.40625 C 11.832031 -3.40625 12.632812 -3.597656 13.28125 -3.984375 C 13.925781 -4.367188 14.445312 -4.875 14.84375 -5.5 C 15.25 -6.125 15.53125 -6.835938 15.6875 -7.640625 C 15.851562 -8.441406 15.9375 -9.269531 15.9375 -10.125 L 15.9375 -20.65625 L 19.921875 -20.65625 L 19.921875 -10.125 C 19.921875 -8.707031 19.75 -7.378906 19.40625 -6.140625 C 19.070312 -4.898438 18.539062 -3.8125 17.8125 -2.875 C 17.09375 -1.945312 16.160156 -1.210938 15.015625 -0.671875 C 13.867188 -0.128906 12.5 0.140625 10.90625 0.140625 C 9.257812 0.140625 7.859375 -0.144531 6.703125 -0.71875 C 5.546875 -1.289062 4.609375 -2.046875 3.890625 -2.984375 C 3.179688 -3.921875 2.664062 -5.007812 2.34375 -6.25 C 2.019531 -7.488281 1.859375 -8.78125 1.859375 -10.125 L 1.859375 -20.65625 L 5.875 -20.65625 L 5.875 -10.125 C 5.875 -9.25 5.957031 -8.410156 6.125 -7.609375 C 6.289062 -6.804688 6.570312 -6.09375 6.96875 -5.46875 C 7.363281 -4.84375 7.878906 -4.34375 8.515625 -3.96875 C 9.160156 -3.59375 9.945312 -3.40625 10.875 -3.40625 Z M 10.875 -3.40625 "/></g></g></g><g fill="#f4f6fc" fill-opacity="1"><g transform="translate(250.681368, 241.855064)"><g><path d="M 2.15625 0 L 2.15625 -20.625 L 6.171875 -20.625 L 6.171875 -10.828125 L 14.84375 -20.65625 L 19.265625 -20.65625 L 11.34375 -11.484375 L 19.75 0 L 15.25 0 L 8.8125 -8.9375 L 6.171875 -6.171875 L 6.171875 0 Z M 2.15625 0 "/></g></g></g><g fill="#f4f6fc" fill-opacity="1"><g transform="translate(276.548206, 241.855064)"><g><path d="M 16.5 -3.515625 L 16.5 0 L 2.15625 0 L 2.15625 -20.65625 L 16.234375 -20.65625 L 16.234375 -17.140625 L 6.171875 -17.140625 L 6.171875 -12.15625 L 14.859375 -12.15625 L 14.859375 -8.90625 L 6.171875 -8.90625 L 6.171875 -3.515625 Z M 16.5 -3.515625 "/></g></g></g><g fill="#f4f6fc" fill-opacity="1"><g transform="translate(112.424202, 266.442994)"><g><path d="M 0.78125 0 L 0.78125 -6.203125 L 4.84375 -6.203125 L 4.84375 -5.65625 L 1.390625 -5.65625 L 1.390625 -3.375 L 4.3125 -3.375 L 4.3125 -2.875 L 1.390625 -2.875 L 1.390625 0 Z M 0.78125 0 "/></g></g></g><g fill="#f4f6fc" fill-opacity="1"><g transform="translate(119.484989, 266.442994)"><g><path d="M 3.28125 0.046875 C 2.84375 0.046875 2.445312 -0.0390625 2.09375 -0.21875 C 1.738281 -0.394531 1.429688 -0.628906 1.171875 -0.921875 C 0.910156 -1.222656 0.707031 -1.5625 0.5625 -1.9375 C 0.425781 -2.3125 0.359375 -2.695312 0.359375 -3.09375 C 0.359375 -3.507812 0.429688 -3.90625 0.578125 -4.28125 C 0.734375 -4.664062 0.941406 -5.003906 1.203125 -5.296875 C 1.460938 -5.585938 1.769531 -5.816406 2.125 -5.984375 C 2.476562 -6.160156 2.863281 -6.25 3.28125 -6.25 C 3.71875 -6.25 4.113281 -6.15625 4.46875 -5.96875 C 4.820312 -5.78125 5.125 -5.535156 5.375 -5.234375 C 5.632812 -4.941406 5.832031 -4.609375 5.96875 -4.234375 C 6.113281 -3.859375 6.1875 -3.476562 6.1875 -3.09375 C 6.1875 -2.675781 6.109375 -2.28125 5.953125 -1.90625 C 5.804688 -1.53125 5.601562 -1.195312 5.34375 -0.90625 C 5.09375 -0.613281 4.785156 -0.378906 4.421875 -0.203125 C 4.066406 -0.0351562 3.6875 0.046875 3.28125 0.046875 Z M 0.984375 -3.09375 C 0.984375 -2.757812 1.035156 -2.4375 1.140625 -2.125 C 1.253906 -1.8125 1.410156 -1.535156 1.609375 -1.296875 C 1.816406 -1.054688 2.0625 -0.863281 2.34375 -0.71875 C 2.625 -0.570312 2.9375 -0.5 3.28125 -0.5 C 3.625 -0.5 3.9375 -0.570312 4.21875 -0.71875 C 4.507812 -0.875 4.753906 -1.070312 4.953125 -1.3125 C 5.148438 -1.5625 5.300781 -1.84375 5.40625 -2.15625 C 5.519531 -2.46875 5.578125 -2.78125 5.578125 -3.09375 C 5.578125 -3.4375 5.519531 -3.765625 5.40625 -4.078125 C 5.289062 -4.390625 5.128906 -4.664062 4.921875 -4.90625 C 4.722656 -5.144531 4.484375 -5.332031 4.203125 -5.46875 C 3.921875 -5.613281 3.613281 -5.6875 3.28125 -5.6875 C 2.925781 -5.6875 2.601562 -5.609375 2.3125 -5.453125 C 2.03125 -5.304688 1.789062 -5.109375 1.59375 -4.859375 C 1.394531 -4.617188 1.242188 -4.34375 1.140625 -4.03125 C 1.035156 -3.726562 0.984375 -3.414062 0.984375 -3.09375 Z M 0.984375 -3.09375 "/></g></g></g><g fill="#f4f6fc" fill-opacity="1"><g transform="translate(127.959524, 266.442994)"><g><path d="M 0.78125 0 L 0.78125 -6.203125 L 3.390625 -6.203125 C 3.660156 -6.203125 3.90625 -6.144531 4.125 -6.03125 C 4.351562 -5.914062 4.550781 -5.765625 4.71875 -5.578125 C 4.882812 -5.398438 5.007812 -5.191406 5.09375 -4.953125 C 5.1875 -4.722656 5.234375 -4.488281 5.234375 -4.25 C 5.234375 -4.019531 5.195312 -3.800781 5.125 -3.59375 C 5.0625 -3.394531 4.96875 -3.210938 4.84375 -3.046875 C 4.726562 -2.878906 4.585938 -2.738281 4.421875 -2.625 C 4.253906 -2.507812 4.066406 -2.429688 3.859375 -2.390625 L 5.375 0 L 4.6875 0 L 3.21875 -2.28125 L 1.390625 -2.28125 L 1.390625 0 Z M 1.390625 -2.828125 L 3.421875 -2.828125 C 3.597656 -2.828125 3.757812 -2.863281 3.90625 -2.9375 C 4.050781 -3.019531 4.175781 -3.128906 4.28125 -3.265625 C 4.394531 -3.398438 4.476562 -3.550781 4.53125 -3.71875 C 4.59375 -3.882812 4.625 -4.0625 4.625 -4.25 C 4.625 -4.4375 4.585938 -4.613281 4.515625 -4.78125 C 4.453125 -4.957031 4.363281 -5.109375 4.25 -5.234375 C 4.132812 -5.367188 4 -5.472656 3.84375 -5.546875 C 3.6875 -5.617188 3.523438 -5.65625 3.359375 -5.65625 L 1.390625 -5.65625 Z M 1.390625 -2.828125 "/></g></g></g><g fill="#f4f6fc" fill-opacity="1"><g transform="translate(135.578831, 266.442994)"><g/></g></g><g fill="#f4f6fc" fill-opacity="1"><g transform="translate(139.724845, 266.442994)"><g><path d="M 4.9375 -0.546875 L 4.9375 0 L 0.78125 0 L 0.78125 -6.203125 L 4.859375 -6.203125 L 4.859375 -5.65625 L 1.390625 -5.65625 L 1.390625 -3.421875 L 4.421875 -3.421875 L 4.421875 -2.90625 L 1.390625 -2.90625 L 1.390625 -0.546875 Z M 4.9375 -0.546875 "/></g></g></g><g fill="#f4f6fc" fill-opacity="1"><g transform="translate(146.960167, 266.442994)"><g><path d="M 1.390625 -5.0625 L 1.390625 0 L 0.78125 0 L 0.78125 -6.203125 L 1.25 -6.203125 L 5.359375 -1.046875 L 5.359375 -6.1875 L 5.96875 -6.1875 L 5.96875 0 L 5.4375 0 Z M 1.390625 -5.0625 "/></g></g></g><g fill="#f4f6fc" fill-opacity="1"><g transform="translate(155.617957, 266.442994)"><g><path d="M 5.171875 -5.65625 L 2.96875 -5.65625 L 2.96875 0 L 2.359375 0 L 2.359375 -5.65625 L 0.15625 -5.65625 L 0.15625 -6.203125 L 5.171875 -6.203125 Z M 5.171875 -5.65625 "/></g></g></g><g fill="#f4f6fc" fill-opacity="1"><g transform="translate(162.861999, 266.442994)"><g><path d="M 4.9375 -0.546875 L 4.9375 0 L 0.78125 0 L 0.78125 -6.203125 L 4.859375 -6.203125 L 4.859375 -5.65625 L 1.390625 -5.65625 L 1.390625 -3.421875 L 4.421875 -3.421875 L 4.421875 -2.90625 L 1.390625 -2.90625 L 1.390625 -0.546875 Z M 4.9375 -0.546875 "/></g></g></g><g fill="#f4f6fc" fill-opacity="1"><g transform="translate(170.097321, 266.442994)"><g><path d="M 0.78125 0 L 0.78125 -6.203125 L 3.390625 -6.203125 C 3.660156 -6.203125 3.90625 -6.144531 4.125 -6.03125 C 4.351562 -5.914062 4.550781 -5.765625 4.71875 -5.578125 C 4.882812 -5.398438 5.007812 -5.191406 5.09375 -4.953125 C 5.1875 -4.722656 5.234375 -4.488281 5.234375 -4.25 C 5.234375 -4.019531 5.195312 -3.800781 5.125 -3.59375 C 5.0625 -3.394531 4.96875 -3.210938 4.84375 -3.046875 C 4.726562 -2.878906 4.585938 -2.738281 4.421875 -2.625 C 4.253906 -2.507812 4.066406 -2.429688 3.859375 -2.390625 L 5.375 0 L 4.6875 0 L 3.21875 -2.28125 L 1.390625 -2.28125 L 1.390625 0 Z M 1.390625 -2.828125 L 3.421875 -2.828125 C 3.597656 -2.828125 3.757812 -2.863281 3.90625 -2.9375 C 4.050781 -3.019531 4.175781 -3.128906 4.28125 -3.265625 C 4.394531 -3.398438 4.476562 -3.550781 4.53125 -3.71875 C 4.59375 -3.882812 4.625 -4.0625 4.625 -4.25 C 4.625 -4.4375 4.585938 -4.613281 4.515625 -4.78125 C 4.453125 -4.957031 4.363281 -5.109375 4.25 -5.234375 C 4.132812 -5.367188 4 -5.472656 3.84375 -5.546875 C 3.6875 -5.617188 3.523438 -5.65625 3.359375 -5.65625 L 1.390625 -5.65625 Z M 1.390625 -2.828125 "/></g></g></g><g fill="#f4f6fc" fill-opacity="1"><g transform="translate(177.716627, 266.442994)"><g><path d="M 5.171875 -5.65625 L 2.96875 -5.65625 L 2.96875 0 L 2.359375 0 L 2.359375 -5.65625 L 0.15625 -5.65625 L 0.15625 -6.203125 L 5.171875 -6.203125 Z M 5.171875 -5.65625 "/></g></g></g><g fill="#f4f6fc" fill-opacity="1"><g transform="translate(184.960669, 266.442994)"><g><path d="M 2.703125 -6.203125 L 3.21875 -6.203125 L 5.796875 0 L 5.140625 0 L 4.34375 -1.9375 L 1.5625 -1.9375 L 0.765625 0 L 0.109375 0 Z M 4.203125 -2.421875 L 2.953125 -5.484375 L 1.6875 -2.421875 Z M 4.203125 -2.421875 "/></g></g></g><g fill="#f4f6fc" fill-opacity="1"><g transform="translate(192.780693, 266.442994)"><g><path d="M 0.78125 0 L 0.78125 -6.203125 L 1.390625 -6.203125 L 1.390625 0 Z M 0.78125 0 "/></g></g></g><g fill="#f4f6fc" fill-opacity="1"><g transform="translate(196.865607, 266.442994)"><g><path d="M 6.265625 0 L 6.265625 -5.09375 L 4.015625 -1.15625 L 3.65625 -1.15625 L 1.390625 -5.09375 L 1.390625 0 L 0.78125 0 L 0.78125 -6.203125 L 1.40625 -6.203125 L 3.828125 -1.953125 L 6.265625 -6.203125 L 6.875 -6.203125 L 6.875 0 Z M 6.265625 0 "/></g></g></g><g fill="#f4f6fc" fill-opacity="1"><g transform="translate(206.439719, 266.442994)"><g><path d="M 4.9375 -0.546875 L 4.9375 0 L 0.78125 0 L 0.78125 -6.203125 L 4.859375 -6.203125 L 4.859375 -5.65625 L 1.390625 -5.65625 L 1.390625 -3.421875 L 4.421875 -3.421875 L 4.421875 -2.90625 L 1.390625 -2.90625 L 1.390625 -0.546875 Z M 4.9375 -0.546875 "/></g></g></g><g fill="#f4f6fc" fill-opacity="1"><g transform="translate(213.675036, 266.442994)"><g><path d="M 1.390625 -5.0625 L 1.390625 0 L 0.78125 0 L 0.78125 -6.203125 L 1.25 -6.203125 L 5.359375 -1.046875 L 5.359375 -6.1875 L 5.96875 -6.1875 L 5.96875 0 L 5.4375 0 Z M 1.390625 -5.0625 "/></g></g></g><g fill="#f4f6fc" fill-opacity="1"><g transform="translate(222.332823, 266.442994)"><g><path d="M 5.171875 -5.65625 L 2.96875 -5.65625 L 2.96875 0 L 2.359375 0 L 2.359375 -5.65625 L 0.15625 -5.65625 L 0.15625 -6.203125 L 5.171875 -6.203125 Z M 5.171875 -5.65625 "/></g></g></g><g fill="#f4f6fc" fill-opacity="1"><g transform="translate(229.576861, 266.442994)"><g/></g></g><g fill="#f4f6fc" fill-opacity="1"><g transform="translate(233.722871, 266.442994)"><g><path d="M 0.78125 0 L 0.78125 -6.203125 L 4.84375 -6.203125 L 4.84375 -5.65625 L 1.390625 -5.65625 L 1.390625 -3.375 L 4.3125 -3.375 L 4.3125 -2.875 L 1.390625 -2.875 L 1.390625 0 Z M 0.78125 0 "/></g></g></g><g fill="#f4f6fc" fill-opacity="1"><g transform="translate(240.783654, 266.442994)"><g><path d="M 2.703125 -6.203125 L 3.21875 -6.203125 L 5.796875 0 L 5.140625 0 L 4.34375 -1.9375 L 1.5625 -1.9375 L 0.765625 0 L 0.109375 0 Z M 4.203125 -2.421875 L 2.953125 -5.484375 L 1.6875 -2.421875 Z M 4.203125 -2.421875 "/></g></g></g><g fill="#f4f6fc" fill-opacity="1"><g transform="translate(248.60367, 266.442994)"><g><path d="M 1.390625 -5.0625 L 1.390625 0 L 0.78125 0 L 0.78125 -6.203125 L 1.25 -6.203125 L 5.359375 -1.046875 L 5.359375 -6.1875 L 5.96875 -6.1875 L 5.96875 0 L 5.4375 0 Z M 1.390625 -5.0625 "/></g></g></g><g fill="#f4f6fc" fill-opacity="1"><g transform="translate(257.261456, 266.442994)"><g><path d="M 4.40625 -5.046875 C 4.226562 -5.242188 3.992188 -5.398438 3.703125 -5.515625 C 3.410156 -5.640625 3.078125 -5.703125 2.703125 -5.703125 C 2.160156 -5.703125 1.765625 -5.597656 1.515625 -5.390625 C 1.265625 -5.179688 1.140625 -4.898438 1.140625 -4.546875 C 1.140625 -4.359375 1.171875 -4.203125 1.234375 -4.078125 C 1.304688 -3.960938 1.410156 -3.863281 1.546875 -3.78125 C 1.679688 -3.695312 1.859375 -3.617188 2.078125 -3.546875 C 2.296875 -3.484375 2.554688 -3.421875 2.859375 -3.359375 C 3.191406 -3.296875 3.488281 -3.21875 3.75 -3.125 C 4.019531 -3.039062 4.242188 -2.929688 4.421875 -2.796875 C 4.609375 -2.671875 4.75 -2.515625 4.84375 -2.328125 C 4.945312 -2.140625 5 -1.90625 5 -1.625 C 5 -1.34375 4.941406 -1.09375 4.828125 -0.875 C 4.722656 -0.664062 4.570312 -0.492188 4.375 -0.359375 C 4.175781 -0.222656 3.941406 -0.117188 3.671875 -0.046875 C 3.398438 0.015625 3.097656 0.046875 2.765625 0.046875 C 1.804688 0.046875 0.976562 -0.25 0.28125 -0.84375 L 0.578125 -1.34375 C 0.691406 -1.226562 0.828125 -1.117188 0.984375 -1.015625 C 1.140625 -0.910156 1.3125 -0.816406 1.5 -0.734375 C 1.6875 -0.660156 1.882812 -0.597656 2.09375 -0.546875 C 2.3125 -0.503906 2.539062 -0.484375 2.78125 -0.484375 C 3.28125 -0.484375 3.664062 -0.570312 3.9375 -0.75 C 4.21875 -0.925781 4.359375 -1.195312 4.359375 -1.5625 C 4.359375 -1.757812 4.316406 -1.921875 4.234375 -2.046875 C 4.160156 -2.179688 4.046875 -2.296875 3.890625 -2.390625 C 3.734375 -2.484375 3.535156 -2.566406 3.296875 -2.640625 C 3.066406 -2.710938 2.796875 -2.78125 2.484375 -2.84375 C 2.160156 -2.925781 1.875 -3.003906 1.625 -3.078125 C 1.382812 -3.160156 1.179688 -3.265625 1.015625 -3.390625 C 0.847656 -3.515625 0.71875 -3.660156 0.625 -3.828125 C 0.539062 -4.003906 0.5 -4.21875 0.5 -4.46875 C 0.5 -4.75 0.550781 -5 0.65625 -5.21875 C 0.769531 -5.445312 0.925781 -5.632812 1.125 -5.78125 C 1.320312 -5.9375 1.554688 -6.050781 1.828125 -6.125 C 2.097656 -6.207031 2.394531 -6.25 2.71875 -6.25 C 3.132812 -6.25 3.503906 -6.1875 3.828125 -6.0625 C 4.148438 -5.9375 4.441406 -5.757812 4.703125 -5.53125 Z M 4.40625 -5.046875 "/></g></g></g><g clip-path="url(#id1)"><path fill="#233dff" d="M 225.796875 182.640625 L 149.191406 182.640625 L 149.191406 106.175781 Z M 225.796875 182.640625 " fill-opacity="1" fill-rule="nonzero"/></g><g clip-path="url(#id2)"><path fill="#233dff" d="M 223.011719 106.3125 L 148.78125 106.3125 L 148.78125 182.8125 L 225.28125 182.8125 L 225.28125 106.3125 L 223.011719 106.3125 M 223.011719 180.542969 L 151.078125 180.542969 L 151.078125 108.605469 L 223.011719 108.605469 L 223.011719 180.542969 " fill-opacity="1" fill-rule="nonzero"/></g><g fill="#f4f6fc" fill-opacity="1"><g transform="translate(213.918405, 114.036445)"><g><path d="M -2.390625 0.046875 L -1.984375 22.9375 L -6.421875 23.015625 L -6.765625 4.03125 L -18.4375 4.234375 L -18.5 0.328125 Z M -2.390625 0.046875 "/></g></g></g><g fill="#f4f6fc" fill-opacity="1"><g transform="translate(160.668776, 174.844601)"><g><path d="M 2.390625 0 L 2.390625 -22.890625 L 6.828125 -22.890625 L 6.828125 -3.90625 L 18.5 -3.90625 L 18.5 0 Z M 2.390625 0 "/></g></g></g></svg>